HIERARCHY
ROOT ui
{
	 OFFSET 0 0 0
	 CHANNELS 3 XPosition YPosition Z Position
	 EndSite
	 {
	 OFFSET 0 -1 0
	 }
}
ROOT li
{
	 OFFSET 0 0 0
	 CHANNELS 3 XPosition YPosition Z Position
	 EndSite
	 {
	 OFFSET 0 -1 0
	 }
}
ROOT ul
{
	 OFFSET 0 0 0
	 CHANNELS 3 XPosition YPosition Z Position
	 EndSite
	 {
	 OFFSET 0 -1 0
	 }
}
ROOT ll
{
	 OFFSET 0 0 0
	 CHANNELS 3 XPosition YPosition Z Position
	 EndSite
	 {
	 OFFSET 0 -1 0
	 }
}
ROOT tt
{
	 OFFSET 0 0 0
	 CHANNELS 3 XPosition YPosition Z Position
	 EndSite
	 {
	 OFFSET 0 -1 0
	 }
}
ROOT tb
{
	 OFFSET 0 0 0
	 CHANNELS 3 XPosition YPosition Z Position
	 EndSite
	 {
	 OFFSET 0 -1 0
	 }
}
ROOT td
{
	 OFFSET 0 0 0
	 CHANNELS 3 XPosition YPosition Z Position
	 EndSite
	 {
	 OFFSET 0 -1 0
	 }
}
ROOT v
{
	 OFFSET 0 0 0
	 CHANNELS 3 XPosition YPosition Z Position
	 EndSite
	 {
	 OFFSET 0 -1 0
	 }
}
ROOT bn
{
	 OFFSET 0 0 0
	 CHANNELS 3 XPosition YPosition Z Position
	 EndSite
	 {
	 OFFSET 0 -1 0
	 }
}
MOTION
Frames: 21
Frame Time: 0.002
0.023583045959472658	-0.005745546817779541	0		0.5190452270507813	-2.354279296875	0		-1.0891590576171875	0.11685153961181641	0		-0.6150023803710938	-2.542313720703125	0		1.814348388671875	-0.8242394409179687	0		3.468013671875	-0.5617298583984375	0		4.5761591796875	-0.12211802673339844	0		5.829859375	0.295885986328125	0		-0.2532892456054687	5.91908984375	0		
-0.041896327972412106	0.006942629814147949	0		0.4984627685546875	-2.344515625	0		-1.0857919921875	0.1211651382446289	0		-0.5546464233398437	-2.536169189453125	0		1.8211199951171875	-0.799056884765625	0		3.437575439453125	-0.5468311157226563	0		4.5713193359375	-0.12776821899414062	0		5.82084765625	0.3036376037597656	0		-0.25583018493652343	5.9215068359375	0		
0.026217918395996093	-0.002126715898513794	0		0.5444954223632813	-2.35514794921875	0		-1.09829296875	0.13175874328613282	0		-0.5985582275390625	-2.542951904296875	0		1.8079674072265626	-0.7705028686523437	0		3.4197578125	-0.5512202758789062	0		4.5598779296875	-0.16331520080566406	0		5.8148388671875	0.328509765625	0		-0.25642465209960935	5.92184228515625	0		
-0.053473636627197264	-0.0012321469783782958	0		0.5329146118164062	-2.347646728515625	0		-1.0250140380859376	0.1295589599609375	0		-0.568435546875	-2.55028369140625	0		1.8096331787109374	-0.7522887573242187	0		3.410920654296875	-0.557823486328125	0		4.5481904296875	-0.1628772430419922	0		5.81680810546875	0.2820029907226563	0		-0.27121725463867186	5.91242138671875	0		
0.020821352005004883	-0.0045159139633178715	0		0.5161165771484375	-2.353084716796875	0		-1.1014417724609376	0.14135908508300782	0		-0.605089599609375	-2.548302001953125	0		1.7955474853515625	-0.723791259765625	0		3.41432470703125	-0.5547080078125	0		4.54923388671875	-0.17773208618164063	0		5.81634423828125	0.2822897033691406	0		-0.25758856201171876	5.92237939453125	0		
0.02023106384277344	-0.004322482109069824	0		0.5175432739257813	-2.3509375	0		-1.1007659912109375	0.15454058837890625	0		-0.5738135986328124	-2.5537529296875	0		1.7914600830078125	-0.6985391235351562	0		3.397017822265625	-0.5402049560546875	0		4.53764404296875	-0.17735955810546875	0		5.8159228515625	0.28252410888671875	0		-0.2581200256347656	5.92257568359375	0		
0.02991990089416504	0.005615428924560547	0		0.48738714599609373	-2.332189697265625	0		-1.096197265625	0.15858937072753906	0		-0.6180497436523438	-2.538711669921875	0		1.781596435546875	-0.6662106323242187	0		3.402316650390625	-0.5492050170898437	0		4.5168486328125	-0.1908367919921875	0		5.81555615234375	0.2827026977539063	0		-0.25859176635742187	5.92272119140625	0		
0.019297317504882814	-0.004085957050323486	0		0.5358040161132812	-2.340095703125	0		-1.0395072021484375	0.16352395629882813	0		-0.5876299438476562	-2.54624658203125	0		1.7728267822265624	-0.6339481811523437	0		3.399179443359375	-0.535067626953125	0		4.5202021484375	-0.2018413543701172	0		5.815255859375	0.282822509765625	0		-0.25898876953125	5.9228154296875	0		
0.018976774215698242	-0.004045100212097168	0		0.4825526428222656	-2.33597607421875	0		-1.1196885986328124	0.17119515991210937	0		-0.592034423828125	-2.55012255859375	0		1.765934814453125	-0.612771240234375	0		3.366028076171875	-0.5263602294921875	0		4.50576220703125	-0.2075196533203125	0		5.80006640625	0.2853504028320312	0		-0.26124029541015625	5.925896484375	0		
0.018759626388549805	-0.00405682897567749	0		0.533205810546875	-2.343025146484375	0		-1.119906005859375	0.171181884765625	0		-0.592248046875	-2.550135009765625	0		1.7252568359375	-0.5859505615234375	0		3.354915771484375	-0.521144287109375	0		4.5113603515625	-0.21664564514160156	0		5.80471435546875	0.26261175537109377	0		-0.2595270690917969	5.92284423828125	0		
0.018643959045410156	-0.0041209101676940914	0		0.4863125915527344	-2.3321318359375	0		-1.1159620361328124	0.1740313262939453	0		-0.615471435546875	-2.555731689453125	0		1.7364466552734374	-0.5712352905273438	0		3.36684033203125	-0.5194404296875	0		4.49408642578125	-0.2243445281982422	0		5.80354052734375	0.3023917236328125	0		-0.25868603515625	5.9217587890625	0		
0.03372162246704102	4.5730599761009216E-4	0		0.5423348999023437	-2.33138525390625	0		-1.1037626953125	0.18466246032714845	0		-0.607315673828125	-2.548015380859375	0		1.7369993896484375	-0.5433458862304688	0		3.322096435546875	-0.5056214294433594	0		4.46831640625	-0.21190538024902345	0		5.79981494140625	0.2851336364746094	0		-0.26166119384765624	5.9257021484375	0		
-0.03028476905822754	-0.002403294086456299	0		0.46879751586914065	-2.312042724609375	0		-1.1136595458984375	0.18669195556640625	0		-0.590236572265625	-2.54853125	0		1.731494384765625	-0.5223785400390625	0		3.322162353515625	-0.5057589111328125	0		4.46391259765625	-0.23494728088378905	0		5.80466259765625	0.26219949340820314	0		-0.26164788818359375	5.92553564453125	0		
0.018814645767211913	-0.004612023830413818	0		0.52761279296875	-2.32944677734375	0		-1.1212449951171874	0.20062911987304688	0		-0.6260533447265625	-2.547016357421875	0		1.692963134765625	-0.5057824096679687	0		3.32035888671875	-0.5028970947265625	0		4.46404443359375	-0.23511407470703125	0		5.802427734375	0.23955513000488282	0		-0.26255685424804687	5.92634130859375	0		
-0.05004876708984375	-0.00646331787109375	0		0.4769354248046875	-2.323659912109375	0		-1.1210640869140625	0.2003606719970703	0		-0.591908447265625	-2.5509697265625	0		1.696517822265625	-0.48808282470703124	0		3.3147119140625	-0.4949934387207031	0		4.45119287109375	-0.23705268859863282	0		5.79842626953125	0.256738525390625	0		-0.26244259643554685	5.9260830078125	0		
0.00942788028717041	0.005038976192474365	0		0.4792508544921875	-2.320990234375	0		-1.11676171875	0.20396867370605468	0		-0.6127275390625	-2.55484521484375	0		1.675956298828125	-0.47793121337890626	0		3.307168212890625	-0.48408514404296876	0		4.45554150390625	-0.23137242126464844	0		5.8064169921875	0.25424298095703124	0		-0.26229534912109376	5.9257841796875	0		
-0.020288291931152343	0.006317549228668213	0		0.48466207885742185	-2.315416748046875	0		-1.1101834716796875	0.2194969940185547	0		-0.5764615478515625	-2.55691552734375	0		1.6995609130859375	-0.46170864868164063	0		3.296556640625	-0.47814657592773435	0		4.44962060546875	-0.2405159912109375	0		5.80110009765625	0.2783108825683594	0		-0.2621222229003906	5.9254501953125	0		
0.01976491928100586	-0.005854129791259766	0		0.5327691650390625	-2.326743408203125	0		-1.11579931640625	0.22423902893066405	0		-0.6229253540039063	-2.546334228515625	0		1.672223876953125	-0.44348016357421877	0		3.31802685546875	-0.46988644409179686	0		4.438931640625	-0.23958726501464844	0		5.80311083984375	0.2379510498046875	0		-0.2629068603515625	5.9261044921875	0		
-0.03969141387939453	0.005971220970153809	0		0.47243109130859373	-2.310890380859375	0		-1.1154947509765625	0.22383184814453125	0		-0.6014998779296875	-2.54316015625	0		1.6725390625	-0.44384298706054687	0		3.292469482421875	-0.4636970520019531	0		4.4330625	-0.2487825012207031	0		5.79919775390625	0.2549451446533203	0		-0.2626930236816406	5.92571044921875	0		
0.020402275085449218	-0.006656436920166015	0		0.47073773193359375	-2.3142548828125	0		-1.12106689453125	0.22852052307128906	0		-0.6262860107421875	-2.551075439453125	0		1.675955810546875	-0.44029061889648435	0		3.29280615234375	-0.4640564270019531	0		4.4392119140625	-0.2582428588867188	0		5.78374560546875	0.25516693115234373	0		-0.26246148681640624	5.92529296875	0		
-0.028218103408813477	-0.005098265171051025	0		0.4850418701171875	-2.318963623046875	0		-1.1107437744140625	0.22686549377441406	0		-0.6238539428710937	-2.549560791015625	0		1.68247314453125	-0.43281964111328125	0		3.31821875	-0.4619419860839844	0		4.43580908203125	-0.24652395629882812	0		5.7877060546875	0.27170599365234377	0		-0.26123199462890623	5.92383447265625	0		
